<svg xmlns="http://www.w3.org/2000/svg" width="24" height="24" class="wd-icon-document-alt wd-icon" focusable="false" role="presentation" viewBox="0 0 24 24"><g fill-rule="evenodd" class="wd-icon-container"><polygon points="19 21 19 3 5 3 5 21" class="wd-icon-background" fill="transparent"></polygon><path d="M4 2.5a.5.5 0 0 1 .5-.5h15a.5.5 0 0 1 .5.5v19a.5.5 0 0 1-.5.5h-15a.5.5 0 0 1-.5-.5zM18 4H6v16h12z" class="wd-icon-fill" fill="--cnvs-sys-color-fg-default"></path><path d="M8.5 7a.5.5 0 0 0-.5.5v1a.5.5 0 0 0 .5.5h7a.5.5 0 0 0 .5-.5v-1a.5.5 0 0 0-.5-.5zM8 11.5a.5.5 0 0 1 .5-.5h7a.5.5 0 0 1 .5.5v1a.5.5 0 0 1-.5.5h-7a.5.5 0 0 1-.5-.5zm.5 3.5a.5.5 0 0 0-.5.5v1a.5.5 0 0 0 .5.5h4a.5.5 0 0 0 .5-.5v-1a.5.5 0 0 0-.5-.5z" class="wd-icon-accent" fill="--cnvs-sys-color-fg-default"></path></g></svg>