<svg xmlns="http://www.w3.org/2000/svg" width="24" height="24" class="wd-icon-mail wd-icon" focusable="false" role="presentation" viewBox="0 0 24 24"><g fill-rule="evenodd" class="wd-icon-container"><path d="M21.506 4c.273 0 .494.226.494.496v15.008a.497.497 0 0 1-.494.496H2.494A.5.5 0 0 1 2 19.504V4.496C2 4.222 2.225 4 2.494 4zm-6.915 9.651-1.579 1.229a1.67 1.67 0 0 1-2.024 0l-1.58-1.229L4 17.514V18h16v-.486zM20 9.444l-3.762 2.926L20 15.057zm-16 0v5.612l3.761-2.686zM20 6H4v.911l8 6.222 8-6.223z" class="wd-icon-fill" fill="--cnvs-sys-color-fg-default"></path></g></svg>