<svg xmlns="http://www.w3.org/2000/svg" width="24" height="24" class="wd-icon-upload wd-icon" focusable="false" role="presentation" viewBox="0 0 24 24"><g class="wd-icon-container"><path d="M20 18.5a.5.5 0 0 0-.5-.5h-15a.5.5 0 0 0-.5.5v1a.5.5 0 0 0 .5.5h15a.5.5 0 0 0 .5-.5z" class="wd-icon-fill" fill="--cnvs-sys-color-fg-default"></path><path d="M11 7.621 9.768 8.854a.5.5 0 0 1-.707 0l-.707-.708a.5.5 0 0 1 0-.707l3.292-3.293a.5.5 0 0 1 .708 0l3.292 3.293a.5.5 0 0 1 0 .707l-.707.708a.5.5 0 0 1-.707 0L13 7.62V15.5a.5.5 0 0 1-.5.5h-1a.5.5 0 0 1-.5-.5z" class="wd-icon-accent" fill="--cnvs-sys-color-fg-default"></path></g></svg>